<?xml version="1.0" standalone="no"?>
<!DOCTYPE svg PUBLIC "-//W3C//DTD SVG 20010904//EN"
 "http://www.w3.org/TR/2001/REC-SVG-20010904/DTD/svg10.dtd">
<svg version="1.0" xmlns="http://www.w3.org/2000/svg"
 width="512.000000pt" height="512.000000pt" viewBox="0 0 512.000000 512.000000"
 preserveAspectRatio="xMidYMid meet">
<metadata>
Created by potrace 1.14, written by Peter Selinger 2001-2017
</metadata>
<g transform="translate(0.000000,512.000000) scale(0.100000,-0.100000)"
fill="#000000" stroke="none">
<path d="M1485 4729 c-149 -21 -257 -105 -331 -254 -36 -73 -70 -191 -82 -285
-11 -88 -7 -428 7 -510 7 -41 15 -88 17 -105 3 -16 12 -63 20 -104 8 -40 13
-79 11 -85 -3 -7 -25 -18 -48 -25 -24 -7 -102 -36 -174 -63 -593 -231 -889
-569 -771 -882 28 -74 44 -102 101 -171 148 -181 416 -343 780 -471 77 -27
119 -47 119 -56 -2 -13 -5 -28 -24 -128 -6 -30 -13 -75 -16 -100 -3 -25 -7
-51 -10 -59 -8 -24 -18 -213 -18 -316 3 -352 100 -587 285 -689 233 -128 615
-8 1024 321 55 44 120 99 145 121 l45 40 65 -57 c367 -324 740 -501 987 -470
213 27 342 159 408 414 57 224 50 509 -21 864 -8 40 -13 75 -12 76 2 1 34 12
73 24 463 148 825 402 918 645 26 69 28 80 28 161 -2 290 -365 596 -932 784
l-97 32 13 57 c7 31 16 77 20 102 3 25 11 74 16 110 35 227 31 501 -11 667
-54 214 -174 359 -335 406 -53 15 -214 17 -270 3 -251 -63 -549 -239 -805
-474 -25 -23 -48 -42 -51 -42 -4 0 -33 24 -66 53 -33 29 -97 82 -144 118 -334
260 -635 381 -864 348z m2177 -238 c171 -84 222 -514 117 -999 -12 -58 1 -55
-119 -27 -77 19 -487 85 -525 85 -1 0 -29 35 -61 78 -67 90 -218 271 -297 357
-30 33 -53 64 -50 70 2 5 45 45 96 87 356 299 673 431 839 349z m-1922 -11
c182 -64 424 -217 603 -382 l57 -53 -57 -61 c-105 -111 -192 -216 -297 -355
-61 -82 -59 -81 -171 -94 -59 -7 -109 -14 -150 -21 -49 -8 -138 -24 -165 -29
-14 -3 -38 -8 -55 -11 -16 -3 -56 -12 -89 -20 -32 -8 -60 -13 -63 -11 -4 5
-37 160 -47 227 -26 163 -27 428 -2 550 18 87 59 187 95 228 11 13 37 32 58
43 52 27 191 22 283 -11z m1008 -803 c45 -54 82 -99 82 -100 0 -1 -121 -2
-270 -2 -148 0 -270 1 -270 3 0 7 101 130 166 202 22 25 54 60 70 78 l28 33
57 -58 c30 -32 92 -102 137 -156z m92 -331 c74 -4 143 -9 155 -12 37 -9 257
-362 394 -632 l72 -143 -55 -112 c-30 -62 -75 -148 -100 -192 -25 -44 -48 -87
-52 -95 -13 -26 -186 -304 -212 -340 -15 -19 -27 -36 -28 -38 -5 -9 -275 -25
-444 -25 -127 0 -417 12 -445 19 -11 3 -36 28 -54 57 -138 208 -278 447 -362
620 l-47 99 19 46 c69 159 401 729 428 733 3 0 15 2 26 5 11 2 85 7 165 10 80
3 146 7 147 8 4 3 263 -2 393 -8z m-1030 -50 c0 -2 -37 -66 -83 -142 -46 -77
-106 -181 -132 -231 -38 -71 -51 -89 -58 -77 -20 36 -127 347 -127 370 0 6 51
21 113 33 230 45 287 54 287 47z m1735 -37 c82 -17 153 -33 157 -37 9 -9 -28
-130 -87 -291 l-38 -103 -15 28 c-34 69 -130 237 -189 331 -34 55 -63 104 -63
108 0 8 39 2 235 -36z m-2310 -241 c26 -79 75 -208 108 -288 33 -80 60 -158
60 -175 0 -16 -23 -85 -50 -152 -28 -67 -75 -193 -104 -280 -28 -87 -55 -161
-59 -166 -7 -8 -187 54 -305 106 -335 149 -555 345 -555 495 0 54 49 144 113
209 131 134 350 256 667 371 30 11 60 20 67 21 6 1 32 -63 58 -141z m2870 85
c391 -147 665 -359 682 -528 5 -46 1 -63 -22 -111 -66 -134 -275 -291 -545
-408 -58 -25 -276 -106 -285 -106 -3 0 -20 48 -38 108 -37 116 -98 283 -126
347 -10 22 -28 65 -41 96 l-22 56 65 164 c68 170 147 400 147 426 0 20 37 11
185 -44z m-2526 -884 c48 -92 92 -171 144 -254 56 -90 87 -144 87 -150 0 -5
-19 -2 -216 36 -88 17 -166 34 -173 39 -10 6 -2 38 32 141 57 171 88 251 93
246 2 -2 17 -28 33 -58z m2054 -79 c68 -190 81 -241 65 -251 -7 -5 -17 -9 -23
-10 -5 0 -17 -2 -25 -4 -69 -15 -192 -38 -270 -51 -14 -2 -35 -6 -47 -9 -13
-3 -23 -2 -23 2 0 5 23 43 50 86 28 43 50 80 50 83 0 2 10 21 23 42 26 40 81
141 116 211 13 24 26 39 31 35 4 -5 28 -65 53 -134z m-2223 -480 c19 -6 49
-13 65 -15 17 -3 64 -12 105 -20 41 -8 90 -17 108 -20 17 -3 47 -8 65 -11 17
-3 46 -7 62 -9 127 -14 151 -18 165 -25 9 -5 43 -44 76 -87 32 -43 65 -84 72
-91 7 -8 25 -30 40 -50 15 -21 34 -44 42 -52 9 -8 28 -31 44 -50 16 -19 56
-64 89 -99 l60 -64 -44 -41 c-50 -47 -177 -150 -229 -186 -19 -13 -37 -27 -40
-30 -3 -4 -52 -35 -110 -69 -93 -54 -232 -117 -283 -127 -10 -2 -27 -6 -37 -9
-10 -3 -47 -6 -82 -7 -152 -3 -234 92 -274 317 -22 117 -20 352 2 500 26 169
45 255 58 255 6 0 27 -5 46 -10z m2364 -7 c6 -20 24 -110 32 -163 3 -19 7 -46
10 -60 24 -138 25 -420 0 -540 -19 -97 -62 -193 -103 -232 -45 -43 -91 -57
-174 -54 -155 7 -359 101 -579 265 -85 63 -231 187 -231 196 0 3 27 36 59 73
124 139 166 190 256 307 50 66 97 121 102 122 6 1 38 5 70 8 33 3 71 8 84 10
14 3 45 8 70 11 25 3 79 12 120 20 41 8 89 17 105 20 17 2 55 11 85 18 76 19
88 19 94 -1z m-944 -113 c0 -19 -251 -310 -268 -310 -12 0 -187 196 -261 292
-12 16 2 17 209 15 180 -2 300 2 318 12 1 0 2 -3 2 -9z"/>
<path d="M2472 3003 c-224 -45 -380 -246 -367 -472 16 -256 236 -449 490 -428
387 33 559 498 286 774 -107 107 -263 156 -409 126z"/>
</g>
</svg>
